<mxfile host="app.diagrams.net" modified="2023-04-10T12:05:58.438Z" agent="Mozilla/5.0 (Windows NT 10.0; Win64; x64) AppleWebKit/537.36 (KHTML, like Gecko) Chrome/111.0.0.0 Safari/537.36" version="21.1.5" etag="u2YxXd3txPzhYYZB4YbS" type="github">
  <diagram name="Sayfa -1" id="ffVMs7Kp2Ly-P9WfjAAN">
    <mxGraphModel>
      <root>
        <mxCell id="0" />
        <mxCell id="1" parent="0" />
      </root>
    </mxGraphModel>
  </diagram>
</mxfile>
